<?xml version="1.0" encoding="UTF-8"?> <svg xmlns="http://www.w3.org/2000/svg" width="181" height="54" viewBox="0 0 181 54" fill="none"> <path d="M166.586 0.0001755H14.4218C13.8672 0.0001755 13.3192 0.0001755 12.766 0.0028755C12.3029 0.0055755 11.8435 0.013419 11.376 0.0200205C10.3604 0.0306879 9.34707 0.110438 8.34499 0.258579C7.34431 0.409945 6.37498 0.695312 5.46978 1.10503C4.56568 1.51821 3.73959 2.0551 3.02146 2.69622C2.29956 3.33554 1.6978 4.0745 1.23932 4.88469C0.779578 5.69327 0.460789 6.55974 0.293968 7.45417C0.12556 8.34748 0.0349379 9.25108 0.0229154 10.1569C0.00887877 10.5708 0.00739646 10.9861 0 11.4V42.6043C0.00739646 43.0235 0.00887877 43.4295 0.0229154 43.8488C0.0349416 44.7546 0.125563 45.6582 0.293968 46.5514C0.460329 47.4464 0.779136 48.3133 1.23932 49.1222C1.69759 49.9298 2.29944 50.6658 3.02146 51.3015C3.73687 51.9455 4.5635 52.4827 5.46978 52.8928C6.37497 53.3036 7.3442 53.5907 8.34499 53.7444C9.34724 53.8913 10.3604 53.9711 11.376 53.983C11.8435 53.9922 12.3029 53.9975 12.766 53.9975C13.3192 54.0002 13.8672 54.0002 14.4218 54.0002H166.586C167.13 54.0002 167.682 54.0002 168.226 53.9975C168.687 53.9975 169.159 53.9922 169.62 53.983C170.634 53.9717 171.645 53.8919 172.645 53.7444C173.65 53.5896 174.622 53.3026 175.532 52.8928C176.437 52.4825 177.263 51.9453 177.978 51.3015C178.698 50.6633 179.301 49.9278 179.765 49.1222C180.222 48.3127 180.538 47.4458 180.702 46.5514C180.87 45.658 180.964 44.7547 180.982 43.8488C180.988 43.4295 180.988 43.0235 180.988 42.6043C181 42.1138 181 41.6261 181 41.1277V12.874C181 12.3796 181 11.8891 180.988 11.4C180.988 10.9861 180.988 10.5708 180.982 10.1568C180.964 9.25095 180.87 8.34754 180.702 7.45412C180.537 6.56021 180.221 5.6938 179.765 4.88464C178.831 3.26069 177.351 1.93881 175.532 1.10491C174.622 0.696191 173.649 0.4109 172.645 0.258458C171.645 0.109664 170.634 0.029886 169.62 0.0198315C169.159 0.0132435 168.687 0.0053325 168.226 0.0027C167.682 0 167.13 0 166.586 0V0.0001755Z" fill="#4C4C4C"></path> <path d="M12.7734 52.8187C12.3125 52.8187 11.8628 52.8134 11.4056 52.8042C10.4584 52.7932 9.51341 52.7196 8.57839 52.584C7.70653 52.45 6.86193 52.2007 6.07245 51.8444C5.29022 51.491 4.57675 51.0276 3.9594 50.4719C3.3331 49.9229 2.81169 49.286 2.41581 48.5867C2.01556 47.8828 1.73857 47.1283 1.59448 46.3495C1.43888 45.5126 1.35469 44.6664 1.34264 43.8182C1.33305 43.5335 1.3205 42.5855 1.3205 42.5855V11.3998C1.3205 11.3998 1.33387 10.4664 1.34272 10.1921C1.35425 9.34525 1.43795 8.50038 1.59309 7.66484C1.73745 6.88389 2.01465 6.12721 2.41511 5.421C2.80954 4.72213 3.32806 4.08481 3.95058 3.53377C4.5724 2.97749 5.28815 2.51172 6.07171 2.15344C6.85937 1.79823 7.70237 1.55069 8.57247 1.41912C9.51056 1.28218 10.4588 1.20815 11.4093 1.19764L12.7741 1.18115H168.219L169.6 1.1983C170.541 1.20829 171.481 1.28166 172.411 1.41779C173.29 1.55102 174.141 1.80028 174.938 2.15739C176.508 2.87943 177.785 4.02177 178.591 5.4243C178.985 6.12563 179.258 6.87614 179.4 7.65034C179.557 8.49274 179.645 9.34425 179.663 10.1981C179.668 10.5804 179.668 10.9911 179.668 11.3998C179.68 11.906 179.68 12.3879 179.68 12.8737V41.1274C179.68 41.6178 179.68 42.0964 179.668 42.5789C179.668 43.0179 179.668 43.4201 179.662 43.834C179.644 44.6726 179.558 45.5089 179.403 46.3362C179.262 47.1207 178.987 47.881 178.586 48.5907C178.188 49.2825 177.669 49.9138 177.05 50.4614C176.432 51.02 175.718 51.4861 174.934 51.8418C174.139 52.2009 173.289 52.4511 172.411 52.584C171.476 52.7203 170.531 52.7939 169.583 52.8042C169.14 52.8134 168.676 52.8187 168.226 52.8187L166.586 52.8214L12.7734 52.8187Z" fill="black"></path> <path d="M36.869 26.2379C36.886 24.9234 37.2361 23.6345 37.8868 22.4912C38.5376 21.3479 39.4677 20.3873 40.5907 19.6988C39.8773 18.6828 38.9361 17.8466 37.8419 17.2567C36.7477 16.6668 35.5307 16.3395 34.2874 16.3007C31.6354 16.0231 29.0644 17.8832 27.7129 17.8832C26.3353 17.8832 24.2546 16.3283 22.014 16.3742C20.5647 16.4209 19.1522 16.8412 17.9142 17.5941C16.6762 18.347 15.6549 19.4068 14.9498 20.6703C11.8954 25.9437 14.1737 33.6939 17.0996 37.9565C18.5634 40.0438 20.2743 42.3753 22.5129 42.2926C24.7035 42.202 25.5216 40.8997 28.1659 40.8997C30.7856 40.8997 31.5532 42.2926 33.8372 42.2401C36.1878 42.202 37.6688 40.1435 39.0813 38.0365C40.1331 36.5492 40.9425 34.9054 41.4794 33.1661C40.1137 32.5901 38.9483 31.626 38.1285 30.394C37.3086 29.1619 36.8706 27.7165 36.869 26.2379V26.2379Z" fill="white"></path> <path d="M32.555 13.4974C33.8366 11.9631 34.468 9.99103 34.3151 8C32.357 8.20508 30.5483 9.1383 29.2493 10.6137C28.6142 11.3345 28.1278 12.173 27.8179 13.0814C27.5079 13.9897 27.3806 14.9501 27.4431 15.9075C28.4225 15.9176 29.3914 15.7059 30.2768 15.2884C31.1623 14.8709 31.9412 14.2585 32.555 13.4974Z" fill="white"></path> <path d="M65.2683 36.6387H58.8603L57.3214 41.1699H54.6072L60.6768 24.4056H63.4968L69.5663 41.1699H66.8059L65.2683 36.6387ZM59.524 34.5478H64.6034L62.0994 27.1939H62.0293L59.524 34.5478Z" fill="white"></path> <path d="M82.6746 35.0593C82.6746 38.8575 80.636 41.2977 77.5596 41.2977C76.7803 41.3384 76.0052 41.1594 75.3232 40.7812C74.6411 40.403 74.0797 39.8409 73.7031 39.1593H73.6449V45.2132H71.129V28.9473H73.5643V30.9802H73.6106C74.0045 30.3019 74.5754 29.7428 75.2626 29.3623C75.9498 28.9818 76.7277 28.7942 77.5133 28.8195C80.624 28.8195 82.6746 31.2716 82.6746 35.0593ZM80.0887 35.0593C80.0887 32.5847 78.8063 30.9578 76.8496 30.9578C74.9273 30.9578 73.6344 32.619 73.6344 35.0593C73.6344 37.522 74.9273 39.1712 76.8496 39.1712C78.8063 39.1712 80.0887 37.5562 80.0887 35.0593Z" fill="white"></path> <path d="M96.1648 35.0592C96.1648 38.8574 94.1262 41.2977 91.0498 41.2977C90.2705 41.3384 89.4954 41.1594 88.8134 40.7812C88.1314 40.403 87.5699 39.8409 87.1934 39.1593H87.1351V45.2132H84.6193V28.9473H87.0545V30.9802H87.1008C87.4947 30.3019 88.0656 29.7428 88.7528 29.3623C89.44 28.9818 90.2179 28.7942 91.0035 28.8195C94.1143 28.8195 96.1648 31.2716 96.1648 35.0592ZM93.5789 35.0592C93.5789 32.5847 92.2965 30.9578 90.3398 30.9578C88.4176 30.9578 87.1246 32.619 87.1246 35.0592C87.1246 37.5219 88.4176 39.1712 90.3398 39.1712C92.2965 39.1712 93.5789 37.5562 93.5789 35.0592H93.5789Z" fill="white"></path> <path d="M105.081 36.4989C105.267 38.1614 106.887 39.2529 109.1 39.2529C111.221 39.2529 112.746 38.1613 112.746 36.6623C112.746 35.3611 111.826 34.582 109.647 34.048L107.468 33.5246C104.381 32.7811 102.948 31.3414 102.948 29.0053C102.948 26.1128 105.476 24.126 109.066 24.126C112.618 24.126 115.053 26.1128 115.135 29.0053H112.595C112.443 27.3323 111.057 26.3224 109.03 26.3224C107.003 26.3224 105.616 27.3442 105.616 28.8313C105.616 30.0165 106.502 30.7139 108.669 31.2478L110.521 31.7013C113.97 32.5147 115.403 33.8964 115.403 36.3485C115.403 39.4849 112.898 41.4492 108.913 41.4492C105.185 41.4492 102.668 39.531 102.505 36.4988L105.081 36.4989Z" fill="white"></path> <path d="M120.833 26.0549V28.9474H123.164V30.9341H120.833V37.6723C120.833 38.719 121.3 39.2068 122.325 39.2068C122.601 39.202 122.877 39.1826 123.152 39.1488V41.1237C122.691 41.2095 122.223 41.2484 121.755 41.2397C119.273 41.2397 118.305 40.3102 118.305 37.9398V30.9341H116.523V28.9474H118.305V26.0549H120.833Z" fill="white"></path> <path d="M124.514 35.0593C124.514 31.2136 126.785 28.7971 130.327 28.7971C133.881 28.7971 136.141 31.2136 136.141 35.0593C136.141 38.9155 133.893 41.3215 130.327 41.3215C126.763 41.3215 124.514 38.9155 124.514 35.0593ZM133.578 35.0593C133.578 32.4212 132.366 30.8642 130.327 30.8642C128.288 30.8642 127.077 32.4331 127.077 35.0593C127.077 37.7078 128.288 39.253 130.327 39.253C132.366 39.253 133.578 37.7078 133.578 35.0593H133.578Z" fill="white"></path> <path d="M138.216 28.9473H140.615V31.0277H140.673C140.836 30.378 141.217 29.8038 141.754 29.4016C142.291 28.9995 142.951 28.7939 143.622 28.8194C143.912 28.8184 144.201 28.8498 144.484 28.9131V31.2597C144.118 31.1482 143.736 31.097 143.353 31.1081C142.988 31.0933 142.623 31.1576 142.285 31.2965C141.947 31.4354 141.643 31.6456 141.394 31.9128C141.145 32.1799 140.956 32.4977 140.842 32.8442C140.728 33.1907 140.69 33.5578 140.732 33.9202V41.1698H138.216L138.216 28.9473Z" fill="white"></path> <path d="M156.083 37.58C155.745 39.7988 153.578 41.3215 150.806 41.3215C147.24 41.3215 145.027 38.9392 145.027 35.1173C145.027 31.2835 147.252 28.7971 150.7 28.7971C154.091 28.7971 156.223 31.12 156.223 34.8259V35.6855H147.567V35.8371C147.527 36.2869 147.583 36.7401 147.732 37.1664C147.881 37.5928 148.12 37.9827 148.432 38.3101C148.744 38.6376 149.122 38.8951 149.541 39.0656C149.96 39.2361 150.411 39.3157 150.864 39.2991C151.458 39.3546 152.055 39.2173 152.565 38.9076C153.075 38.5978 153.471 38.1322 153.694 37.58L156.083 37.58ZM147.578 33.9321H153.706C153.729 33.5276 153.667 33.1229 153.526 32.7432C153.384 32.3636 153.165 32.0173 152.883 31.726C152.6 31.4347 152.261 31.2048 151.885 31.0506C151.51 30.8964 151.106 30.8213 150.7 30.83C150.29 30.8275 149.884 30.906 149.505 31.0609C149.126 31.2158 148.781 31.4441 148.491 31.7325C148.201 32.0209 147.971 32.3637 147.814 32.7413C147.658 33.1188 147.577 33.5235 147.578 33.9321V33.9321Z" fill="white"></path> <path d="M59.2087 11.7869C59.7361 11.7491 60.2654 11.8286 60.7583 12.0195C61.2513 12.2105 61.6956 12.5081 62.0592 12.891C62.4228 13.2739 62.6966 13.7325 62.861 14.2337C63.0253 14.7349 63.0761 15.2663 63.0096 15.7894C63.0096 18.3629 61.6148 19.8421 59.2087 19.8421H56.2909V11.7869H59.2087ZM57.5455 18.7029H59.0685C59.4454 18.7254 59.8226 18.6638 60.1726 18.5225C60.5226 18.3813 60.8367 18.164 61.0918 17.8865C61.347 17.609 61.5369 17.2782 61.6478 16.9183C61.7586 16.5584 61.7875 16.1783 61.7325 15.8058C61.7835 15.4348 61.7516 15.0571 61.6391 14.6998C61.5266 14.3425 61.3362 14.0145 61.0816 13.7392C60.827 13.4639 60.5145 13.2481 60.1665 13.1074C59.8184 12.9667 59.4435 12.9045 59.0685 12.9252H57.5455V18.7029Z" fill="white"></path> <path d="M64.4268 16.7999C64.3885 16.4004 64.4343 15.9973 64.5614 15.6165C64.6884 15.2357 64.8938 14.8856 65.1645 14.5887C65.4352 14.2917 65.7651 14.0544 66.1332 13.892C66.5012 13.7297 66.8992 13.6458 67.3016 13.6458C67.7041 13.6458 68.1021 13.7297 68.4701 13.892C68.8381 14.0544 69.1681 14.2917 69.4387 14.5887C69.7094 14.8856 69.9149 15.2357 70.0419 15.6165C70.1689 15.9973 70.2148 16.4004 70.1764 16.7999C70.2155 17.1998 70.1702 17.6034 70.0435 17.9848C69.9168 18.3662 69.7115 18.717 69.4407 19.0145C69.17 19.3121 68.8398 19.5499 68.4714 19.7126C68.103 19.8753 67.7045 19.9594 67.3016 19.9594C66.8987 19.9594 66.5002 19.8753 66.1318 19.7126C65.7634 19.5499 65.4333 19.3121 65.1625 19.0145C64.8918 18.717 64.6864 18.3662 64.5597 17.9848C64.433 17.6034 64.3878 17.1998 64.4268 16.7999V16.7999ZM68.939 16.7999C68.939 15.4822 68.3454 14.7116 67.3036 14.7116C66.2579 14.7116 65.6696 15.4822 65.6696 16.7999C65.6696 18.1282 66.2579 18.8928 67.3036 18.8928C68.3454 18.8928 68.939 18.1229 68.939 16.7999H68.939Z" fill="white"></path> <path d="M77.8193 19.842H76.5713L75.3114 15.3649H75.2162L73.9616 19.842H72.7254L71.0451 13.7631H72.2654L73.3574 18.4017H73.4473L74.7006 13.7631H75.8548L77.1081 18.4017H77.2033L78.29 13.7631H79.4931L77.8193 19.842Z" fill="white"></path> <path d="M80.9063 13.7631H82.0644V14.7288H82.1543C82.3069 14.3819 82.5641 14.0912 82.8902 13.897C83.2163 13.7029 83.595 13.615 83.9735 13.6457C84.2701 13.6235 84.5679 13.6681 84.8449 13.7762C85.1219 13.8843 85.3709 14.0532 85.5736 14.2704C85.7762 14.4875 85.9273 14.7473 86.0155 15.0306C86.1038 15.3138 86.127 15.6133 86.0835 15.9067V19.842H84.8804V16.208C84.8804 15.2311 84.4547 14.7452 83.565 14.7452C83.3636 14.7359 83.1626 14.7701 82.9757 14.8454C82.7888 14.9208 82.6204 15.0356 82.4822 15.1819C82.3439 15.3282 82.239 15.5026 82.1747 15.6932C82.1103 15.8837 82.0881 16.0858 82.1094 16.2857V19.842H80.9063L80.9063 13.7631Z" fill="white"></path> <path d="M88.0005 11.39H89.2036V19.842H88.0005V11.39Z" fill="white"></path> <path d="M90.876 16.7999C90.8377 16.4004 90.8836 15.9973 91.0106 15.6165C91.1377 15.2357 91.3432 14.8856 91.6139 14.5886C91.8846 14.2916 92.2146 14.0543 92.5826 13.8919C92.9507 13.7296 93.3487 13.6457 93.7512 13.6457C94.1536 13.6457 94.5516 13.7296 94.9197 13.8919C95.2878 14.0543 95.6177 14.2916 95.8884 14.5886C96.1591 14.8856 96.3646 15.2357 96.4917 15.6165C96.6187 15.9973 96.6646 16.4004 96.6263 16.7999C96.6653 17.1998 96.62 17.6035 96.4932 17.9849C96.3665 18.3663 96.1611 18.717 95.8904 19.0146C95.6196 19.3121 95.2894 19.5499 94.921 19.7126C94.5526 19.8753 94.1541 19.9594 93.7512 19.9594C93.3482 19.9594 92.9497 19.8753 92.5813 19.7126C92.2129 19.5499 91.8827 19.3121 91.6119 19.0146C91.3412 18.717 91.1358 18.3663 91.0091 17.9849C90.8823 17.6035 90.837 17.1998 90.876 16.7999V16.7999ZM95.3882 16.7999C95.3882 15.4822 94.7946 14.7116 93.7528 14.7116C92.7071 14.7116 92.1188 15.4822 92.1188 16.7999C92.1188 18.1282 92.7071 18.8928 93.7528 18.8928C94.7946 18.8928 95.3882 18.1229 95.3882 16.7999H95.3882Z" fill="white"></path> <path d="M97.8928 18.1229C97.8928 17.0286 98.7099 16.3978 100.16 16.3082L101.811 16.2132V15.6885C101.811 15.0465 101.386 14.684 100.563 14.684C99.8918 14.684 99.4264 14.9298 99.2929 15.3596H98.1281C98.2511 14.3155 99.236 13.6458 100.619 13.6458C102.147 13.6458 103.009 14.4045 103.009 15.6885V19.842H101.851V18.9877H101.756C101.563 19.2942 101.291 19.544 100.97 19.7117C100.648 19.8794 100.287 19.9589 99.9248 19.9422C99.6689 19.9687 99.4103 19.9415 99.1656 19.8623C98.9208 19.783 98.6955 19.6535 98.504 19.4821C98.3126 19.3107 98.1593 19.1012 98.054 18.8671C97.9487 18.633 97.8938 18.3795 97.8928 18.1229V18.1229ZM101.811 17.6035V17.0952L100.323 17.1902C99.4833 17.2462 99.1025 17.5309 99.1025 18.0669C99.1025 18.614 99.5784 18.9324 100.233 18.9324C100.425 18.9517 100.618 18.9324 100.802 18.8756C100.987 18.8188 101.157 18.7256 101.305 18.6016C101.452 18.4776 101.573 18.3253 101.66 18.1539C101.747 17.9824 101.798 17.7952 101.811 17.6035V17.6035Z" fill="white"></path> <path d="M104.59 16.7999C104.59 14.8791 105.581 13.6622 107.121 13.6622C107.502 13.6447 107.88 13.7357 108.211 13.9246C108.542 14.1134 108.812 14.3923 108.99 14.7287H109.08V11.39H110.283V19.842H109.13V18.8816H109.035C108.843 19.2157 108.564 19.4911 108.226 19.6781C107.889 19.865 107.507 19.9564 107.121 19.9422C105.57 19.9423 104.59 18.7254 104.59 16.7999ZM105.833 16.7999C105.833 18.0893 106.443 18.8651 107.462 18.8651C108.476 18.8651 109.103 18.0781 109.103 16.8052C109.103 15.5383 108.469 14.74 107.462 14.74C106.449 14.74 105.833 15.5211 105.833 16.7999H105.833Z" fill="white"></path> <path d="M115.261 16.7999C115.222 16.4004 115.268 15.9973 115.395 15.6165C115.522 15.2357 115.728 14.8856 115.998 14.5887C116.269 14.2917 116.599 14.0544 116.967 13.892C117.335 13.7297 117.733 13.6458 118.136 13.6458C118.538 13.6458 118.936 13.7297 119.304 13.892C119.672 14.0544 120.002 14.2917 120.273 14.5887C120.543 14.8856 120.749 15.2357 120.876 15.6165C121.003 15.9973 121.049 16.4004 121.01 16.7999C121.049 17.1998 121.004 17.6034 120.877 17.9848C120.751 18.3662 120.545 18.717 120.275 19.0145C120.004 19.3121 119.674 19.5499 119.305 19.7126C118.937 19.8753 118.538 19.9594 118.136 19.9594C117.733 19.9594 117.334 19.8753 116.966 19.7126C116.597 19.5499 116.267 19.3121 115.996 19.0145C115.726 18.717 115.52 18.3662 115.394 17.9848C115.267 17.6034 115.222 17.1998 115.261 16.7999V16.7999ZM119.773 16.7999C119.773 15.4822 119.179 14.7116 118.138 14.7116C117.092 14.7116 116.504 15.4822 116.504 16.7999C116.504 18.1282 117.092 18.8928 118.138 18.8928C119.179 18.8928 119.773 18.1229 119.773 16.7999Z" fill="white"></path> <path d="M122.625 13.7631H123.783V14.7288H123.873C124.025 14.3819 124.282 14.0912 124.608 13.897C124.935 13.7029 125.313 13.615 125.692 13.6457C125.988 13.6235 126.286 13.6681 126.563 13.7762C126.84 13.8843 127.089 14.0532 127.292 14.2704C127.495 14.4875 127.646 14.7473 127.734 15.0306C127.822 15.3138 127.845 15.6133 127.802 15.9067V19.842H126.599V16.208C126.599 15.2311 126.173 14.7452 125.283 14.7452C125.082 14.7359 124.881 14.7701 124.694 14.8454C124.507 14.9208 124.339 15.0356 124.2 15.1819C124.062 15.3282 123.957 15.5026 123.893 15.6932C123.829 15.8837 123.806 16.0858 123.828 16.2857V19.842H122.625V13.7631Z" fill="white"></path> <path d="M134.6 12.2496V13.7908H135.921V14.8013H134.6V17.9271C134.6 18.5639 134.863 18.8427 135.462 18.8427C135.615 18.8422 135.768 18.833 135.921 18.815V19.8143C135.705 19.8529 135.486 19.8734 135.266 19.8756C133.928 19.8756 133.395 19.4063 133.395 18.2343V14.8012H132.428V13.7907H133.395V12.2496H134.6Z" fill="white"></path> <path d="M137.564 11.39H138.756V14.74H138.852C139.012 14.3899 139.276 14.0975 139.608 13.9026C139.941 13.7078 140.326 13.6199 140.71 13.651C141.005 13.635 141.3 13.6841 141.574 13.7949C141.848 13.9056 142.094 14.0753 142.295 14.2917C142.495 14.5082 142.645 14.7661 142.734 15.0471C142.823 15.3281 142.849 15.6252 142.81 15.9173V19.842H141.605V16.2132C141.605 15.2423 141.152 14.7505 140.302 14.7505C140.095 14.7336 139.887 14.7619 139.693 14.8336C139.498 14.9052 139.321 15.0183 139.175 15.1651C139.029 15.3119 138.917 15.4888 138.846 15.6834C138.776 15.878 138.749 16.0856 138.767 16.2917V19.842H137.564L137.564 11.39Z" fill="white"></path> <path d="M149.825 18.2007C149.661 18.7563 149.307 19.2368 148.824 19.5583C148.341 19.8798 147.76 20.0218 147.183 19.9594C146.782 19.9699 146.382 19.8932 146.014 19.7346C145.645 19.5759 145.315 19.3391 145.047 19.0406C144.779 18.742 144.579 18.3889 144.462 18.0058C144.345 17.6226 144.312 17.2186 144.367 16.8217C144.314 16.4236 144.347 16.0187 144.464 15.6344C144.581 15.2501 144.779 14.8953 145.046 14.5942C145.312 14.293 145.641 14.0525 146.008 13.8889C146.376 13.7252 146.775 13.6423 147.178 13.6458C148.874 13.6458 149.897 14.8014 149.897 16.7103V17.1289H145.593V17.1961C145.574 17.4192 145.602 17.6437 145.675 17.8554C145.749 18.067 145.865 18.261 146.018 18.4249C146.171 18.5889 146.357 18.7192 146.563 18.8075C146.769 18.8958 146.992 18.9401 147.216 18.9376C147.504 18.9721 147.796 18.9204 148.054 18.7892C148.312 18.6579 148.525 18.4531 148.667 18.2006L149.825 18.2007ZM145.593 16.2416H148.672C148.687 16.0376 148.659 15.8327 148.59 15.64C148.521 15.4473 148.413 15.2712 148.271 15.1229C148.13 14.9746 147.959 14.8574 147.77 14.7788C147.58 14.7003 147.376 14.6621 147.171 14.6668C146.963 14.6642 146.757 14.7032 146.564 14.7814C146.371 14.8596 146.196 14.9755 146.049 15.1223C145.902 15.2691 145.786 15.4437 145.707 15.636C145.629 15.8282 145.59 16.0341 145.593 16.2416H145.593Z" fill="white"></path> </svg> 