<?xml version="1.0" encoding="UTF-8"?> <svg xmlns="http://www.w3.org/2000/svg" id="Capa_1" data-name="Capa 1" viewBox="0 0 456.59 511.63"> <defs> <style>.cls-1{fill:none;stroke:#000;stroke-miterlimit:10;stroke-width:10px;}</style> </defs> <title>icon_wanna</title> <path class="cls-1" d="M451.59,358.53V153.11a45.4,45.4,0,0,0-22.7-39.32L251,11.08a45.4,45.4,0,0,0-45.4,0L27.7,113.79A45.4,45.4,0,0,0,5,153.11V358.53a45.39,45.39,0,0,0,22.7,39.31L205.6,500.55a45.4,45.4,0,0,0,45.4,0L428.89,397.84A45.39,45.39,0,0,0,451.59,358.53Z"></path> <path class="cls-1" d="M351.38,300.67V211a45.39,45.39,0,0,0-22.7-39.31L251,126.8a45.4,45.4,0,0,0-45.4,0l-77.69,44.85A45.39,45.39,0,0,0,105.21,211v89.71A45.37,45.37,0,0,0,127.91,340l77.69,44.86a45.4,45.4,0,0,0,45.4,0L328.68,340A45.37,45.37,0,0,0,351.38,300.67Z"></path> <path class="cls-1" d="M11.44,130.41,206.25,242.89a44.12,44.12,0,0,0,44.09,0L445.15,130.41"></path> <line class="cls-1" x1="228.3" y1="5" x2="228.3" y2="120.71"></line> <line class="cls-1" x1="228.3" y1="248.79" x2="228.3" y2="506.63"></line> <line class="cls-1" x1="112.21" y1="326.88" x2="12" y2="384.74"></line> <line class="cls-1" x1="344.38" y1="326.88" x2="444.59" y2="384.74"></line> </svg> 