<?xml version="1.0" encoding="UTF-8"?> <svg xmlns="http://www.w3.org/2000/svg" id="Capa_1" data-name="Capa 1" viewBox="0 0 483.71 483.71"> <defs> <style>.cls-1{fill:none;stroke:#000;stroke-miterlimit:10;stroke-width:10px;}</style> </defs> <title>icon_wanna</title> <rect class="cls-1" x="5" y="5" width="473.71" height="473.71" rx="45.4"></rect> <path class="cls-1" d="M310.18,105.21H173.53a45.41,45.41,0,0,0-40.84,25.57L109.77,178a45.41,45.41,0,0,0-4.56,19.83V333.1a45.4,45.4,0,0,0,45.4,45.4H333.1a45.39,45.39,0,0,0,45.4-45.4V197.82A45.41,45.41,0,0,0,373.94,178L351,130.78A45.39,45.39,0,0,0,310.18,105.21Z"></path> <line class="cls-1" x1="105.21" y1="187.38" x2="378.5" y2="187.38"></line> </svg> 