<?xml version="1.0" encoding="UTF-8"?> <svg xmlns="http://www.w3.org/2000/svg" width="179" height="53" viewBox="0 0 179 53" fill="none"> <path d="M11.7999 52.4311C11.2999 52.4311 10.8999 52.4311 10.3999 52.4311C9.4999 52.4311 8.4999 52.3311 7.5999 52.2311C6.6999 52.1311 5.8999 51.8311 5.0999 51.5311C4.2999 51.1311 3.5999 50.6311 2.9999 50.1311C2.3999 49.6311 1.8999 48.9311 1.4999 48.2311C1.0999 47.5311 0.799902 46.7311 0.699902 46.0311C0.499902 45.2311 0.499902 44.3311 0.399902 43.5311C0.399902 43.2311 0.399902 42.3311 0.399902 42.3311V11.0311C0.399902 11.0311 0.399902 10.1311 0.399902 9.83105C0.399902 9.03105 0.499902 8.13105 0.699902 7.33105C0.699902 6.53105 0.999902 5.73105 1.3999 5.03105C1.7999 4.33105 2.2999 3.73105 2.9999 3.13105C3.5999 2.53105 4.2999 2.13105 5.0999 1.73105C5.8999 1.33105 6.6999 1.13105 7.5999 1.03105C8.4999 0.931055 9.4999 0.831055 10.3999 0.831055H11.7999H167.2H168.6C169.5 0.831055 170.5 0.931055 171.4 1.03105C172.3 1.13105 173.1 1.43105 173.9 1.73105C175.5 2.43105 176.7 3.63105 177.6 5.03105C178 5.73105 178.3 6.53105 178.4 7.23105C178.6 8.03105 178.6 8.93106 178.7 9.73106C178.7 10.1311 178.7 10.5311 178.7 10.9311C178.7 11.4311 178.7 11.9311 178.7 12.4311V40.7311C178.7 41.2311 178.7 41.7311 178.7 42.2311C178.7 42.6311 178.7 43.0311 178.7 43.5311C178.7 44.3311 178.6 45.2311 178.4 46.0311C178.3 46.8311 178 47.5311 177.6 48.3311C177.2 49.0311 176.7 49.6311 176.1 50.2311C175.5 50.8311 174.8 51.2311 174 51.6311C173.2 52.0311 172.4 52.2311 171.5 52.3311C170.6 52.4311 169.6 52.5311 168.7 52.5311C168.3 52.5311 167.8 52.5311 167.3 52.5311H165.7L11.7999 52.4311Z" fill="#DEFD3D"></path> <path d="M42 16.6813C42.2 16.7813 42.3 16.8813 42.4 17.0813C42.4 17.0813 42.4 17.0813 42.4 17.1813C42.4 17.2813 42.5 17.3812 42.5 17.4812V23.8812C42.5 24.3812 42.1 24.7813 41.6 24.7813C41.1 24.7813 40.7 24.3812 40.7 23.8812V18.9812L36.5 21.0813C36 21.2813 35.5 21.0813 35.3 20.6813C35.1 20.1813 35.3 19.6812 35.7 19.4812L39.6 17.5813L35.7 15.5813C35.2 15.3813 35.1 14.7813 35.3 14.3813C35.5 13.8813 36.1 13.7812 36.5 13.9812L42 16.6813ZM42.5 35.7812C42.5 35.8813 42.5 36.0812 42.4 36.1812C42.4 36.2812 42.3 36.3813 42.2 36.4813C42.2 36.5813 42.1 36.5812 42 36.6812L36.5 39.3812C36 39.5812 35.5 39.3813 35.3 38.9813C35.1 38.4813 35.3 37.9813 35.7 37.7812L39.6 35.8812L35.7 33.9813C35.2 33.7813 35.1 33.1813 35.3 32.7812C35.5 32.2812 36.1 32.1812 36.5 32.3812L40.7 34.4813V29.5812C40.7 29.0812 41.1 28.6813 41.6 28.6813C42.1 28.6813 42.5 29.0812 42.5 29.5812V35.7812ZM14.4 35.7812L18.3 37.6812C18.8 37.8812 18.9 38.4812 18.7 38.8812C18.5 39.3812 17.9 39.4813 17.5 39.2812L12 36.6812C11.8 36.5812 11.7 36.4813 11.6 36.2812C11.6 36.2812 11.6 36.2812 11.6 36.1812C11.6 36.0812 11.5 35.9812 11.5 35.8812V29.4813C11.5 28.9813 11.9 28.5812 12.4 28.5812C12.9 28.5812 13.3 28.9813 13.3 29.4813V34.3812L17.5 32.2812C18 32.0812 18.5 32.2812 18.7 32.6812C18.9 33.1812 18.7 33.6812 18.3 33.8812L14.4 35.7812ZM13.3 18.9812V23.8812C13.3 24.3812 12.9 24.7813 12.4 24.7813C11.9 24.7813 11.5 24.3812 11.5 23.8812V17.5813C11.5 17.4813 11.5 17.2813 11.6 17.1813C11.6 17.0813 11.7 16.9812 11.8 16.8812C11.9 16.7812 12 16.7813 12 16.6813L17.5 13.9812C18 13.7812 18.5 13.9813 18.7 14.3813C18.9 14.8813 18.7 15.3813 18.3 15.5813L14.4 17.5813L18.3 19.4812C18.8 19.6812 18.9 20.2813 18.7 20.6813C18.5 21.1813 17.9 21.2813 17.5 21.0813L13.3 18.9812ZM26.6 9.38125C26.7 9.28125 26.9 9.28125 27 9.28125C27.2 9.28125 27.3 9.28125 27.4 9.38125L32.9 12.0813C33.4 12.2813 33.5 12.8812 33.3 13.2812C33.1 13.7812 32.5 13.8813 32.1 13.6813L27.9 11.5813V16.5813C27.9 17.0813 27.5 17.4812 27 17.4812C26.5 17.4812 26.1 17.0813 26.1 16.5813V11.6813L21.9 13.7812C21.4 13.9813 20.9 13.7813 20.7 13.3813C20.5 12.8813 20.7 12.3813 21.1 12.1813L26.6 9.38125ZM27.4 43.9813C27.3 44.0813 27.1 44.0812 27 44.0812C26.8 44.0812 26.7 44.0813 26.6 43.9813L21.1 41.2812C20.6 41.0812 20.5 40.4812 20.7 40.0812C20.9 39.5812 21.5 39.4812 21.9 39.6812L26.1 41.7812V36.8812C26.1 36.3812 26.5 35.9813 27 35.9813C27.5 35.9813 27.9 36.3812 27.9 36.8812V41.7812L32.1 39.6812C32.6 39.4812 33.1 39.6812 33.3 40.0812C33.5 40.5812 33.3 41.0812 32.9 41.2812L27.4 43.9813ZM27.9 25.3812V30.2812C27.9 30.7812 27.5 31.1813 27 31.1813C26.5 31.1813 26.1 30.7812 26.1 30.2812V25.3812L21.1 22.8812C20.6 22.6812 20.5 22.0813 20.7 21.6813C20.9 21.1813 21.5 21.0813 21.9 21.2813L27 23.7813L32.1 21.2813C32.6 21.0813 33.1 21.2813 33.3 21.6813C33.5 22.1813 33.3 22.6812 32.9 22.8812L27.9 25.3812Z" fill="black"></path> <path d="M56.6577 33.6814H58.5305V21.9858H62.8635V20.3701H52.3247V21.9858H56.6577V33.6814Z" fill="black"></path> <path d="M67.089 23.7668C66.887 23.7484 66.7585 23.7484 66.5933 23.7484C65.2897 23.8035 64.2982 24.4094 63.8025 25.5294V23.8035H62.1684V33.6814H63.8392V28.5037C63.8392 26.3189 64.6103 25.4743 66.1526 25.4743C66.428 25.4743 66.7401 25.4926 67.089 25.5477V23.7668Z" fill="black"></path> <path d="M73.6339 23.8035L71.192 31.423L68.6766 23.8035H66.8222L70.3841 33.6814L70.3107 33.8833C69.87 35.4256 69.3376 35.499 68.2359 35.499H67.5566V36.8944H68.4195C70.6411 36.8944 71.1185 36.2334 71.8529 34.1036L75.3781 23.8035H73.6339Z" fill="black"></path> <path d="M88.2143 20.3701H86.011L83.5507 31.5516L80.9803 20.3701H78.9239L82.3022 33.6814H84.5789L87.0943 22.7386L89.6647 33.6814H91.9414L95.2646 20.3701H93.3001L90.8398 31.5516L88.2143 20.3701Z" fill="black"></path> <path d="M104.493 29.2932C104.695 26.1536 102.914 23.6383 99.8841 23.6383C97.1852 23.6383 95.0921 25.6212 95.0921 28.7608C95.0921 31.6801 96.818 33.92 99.9392 33.92C102.344 33.92 103.923 32.5063 104.364 30.8171H102.638C102.216 31.7902 101.408 32.4512 99.9392 32.4512C98.4887 32.4512 96.9465 31.423 96.8914 29.2932H104.493ZM99.8841 25.0704C101.665 25.0704 102.675 26.4657 102.73 27.8611H96.9098C97.0566 25.8782 98.4153 25.0704 99.8841 25.0704Z" fill="black"></path> <path d="M107.486 28.7791C107.486 26.172 108.882 25.0704 110.369 25.0704C112.076 25.0704 113.196 26.4107 113.196 28.7791C113.196 31.1476 112.076 32.4879 110.369 32.4879C108.882 32.4879 107.486 31.3863 107.486 28.7791ZM105.889 20.3701V33.6814H107.56V32.1942C108.166 33.2407 109.194 33.92 110.791 33.92C113.068 33.92 115.014 32.0656 115.014 28.7791C115.014 25.5477 113.068 23.6383 110.791 23.6383C109.194 23.6383 108.166 24.3176 107.56 25.3641V20.3701H105.889Z" fill="black"></path> <path d="M129.407 27.0166C129.407 31.5516 126.744 32.1024 124.009 32.1024H122.301V21.9491H124.009C126.744 21.9491 129.407 22.4999 129.407 27.0166ZM120.428 20.3701V33.6814H124.064C128.268 33.6814 131.316 32.084 131.316 27.0166C131.316 21.9675 128.268 20.3701 124.064 20.3701H120.428Z" fill="black"></path> <path d="M141.753 29.2932C141.955 26.1536 140.174 23.6383 137.145 23.6383C134.446 23.6383 132.353 25.6212 132.353 28.7608C132.353 31.6801 134.079 33.92 137.2 33.92C139.605 33.92 141.184 32.5063 141.625 30.8171H139.899C139.477 31.7902 138.669 32.4512 137.2 32.4512C135.749 32.4512 134.207 31.423 134.152 29.2932H141.753ZM137.145 25.0704C138.926 25.0704 139.936 26.4657 139.991 27.8611H134.17C134.317 25.8782 135.676 25.0704 137.145 25.0704Z" fill="black"></path> <path d="M144.82 28.3201C144.82 26.1903 145.757 25.0887 147.207 25.0887C149.025 25.0887 149.319 26.4107 149.319 27.9346V33.6814H150.99V28.3201C150.99 26.1903 151.926 25.0887 153.376 25.0887C155.194 25.0887 155.488 26.4107 155.488 27.9346V33.6814H157.159V27.4388C157.159 25.1805 156.259 23.6383 153.964 23.6383C152.569 23.6383 151.43 24.1523 150.641 25.3825C150.2 24.2809 149.319 23.6383 147.795 23.6383C146.308 23.6383 145.39 24.3543 144.82 25.2907V23.8035H143.15V33.6814H144.82V28.3201Z" fill="black"></path> <path d="M160.251 28.7791C160.251 26.0802 161.683 25.1071 163.207 25.1071C164.731 25.1071 166.163 26.1353 166.163 28.7791C166.163 31.3129 164.731 32.4512 163.207 32.4512C161.683 32.4512 160.251 31.423 160.251 28.7791ZM163.207 23.6383C160.912 23.6383 158.47 25.1989 158.47 28.7791C158.47 32.3594 160.912 33.92 163.207 33.92C165.502 33.92 167.944 32.3594 167.944 28.7791C167.944 25.1989 165.502 23.6383 163.207 23.6383Z" fill="black"></path> </svg> 