<?xml version="1.0" encoding="UTF-8"?> <svg xmlns="http://www.w3.org/2000/svg" id="Слой_1" data-name="Слой 1" viewBox="0 0 793.03 183.48"> <defs> <style>.cls-1{fill:#fff;}</style> </defs> <title>wanna_white_logo</title> <path class="cls-1" d="M117.66,0l20.1,118.24h1.16L160.18,0h36.7l-37,183.48h-39L99,57.37H97.86L76,183.48H37L0,0H39L59.7,118.24h1.17L81.55,0Z"></path> <path class="cls-1" d="M282,0l52.72,183.48H295.1l-11.36-42.23H230.15L218.5,183.48H182.1L234.81,0ZM238.6,110.38h36.69L257.82,44.85h-1.16Z"></path> <path class="cls-1" d="M441.24,108.63h1.16V0h35.82V183.48H447.64L384.74,67.86h-1.17V183.48H347.46V0h37Z"></path> <path class="cls-1" d="M590.69,108.63h1.16V0h35.82V183.48H597.09L534.19,67.86H533V183.48H496.91V0h37Z"></path> <path class="cls-1" d="M740.32,0,793,183.48H753.42l-11.36-42.23H688.48l-11.65,42.23H640.42L693.13,0Zm-43.4,110.38h36.7L716.14,44.85H715Z"></path> </svg> 