<?xml version="1.0" encoding="UTF-8"?> <svg xmlns="http://www.w3.org/2000/svg" id="035ef104-ace0-4db7-b710-7db4312cc5c4" data-name="Слой 1" width="104.95mm" height="106.72mm" viewBox="0 0 297.5 302.5"> <defs> <style> .\37 dc714a7-1492-46ea-a520-3d02e014e2d1 { fill: #f4f4f4; } </style> </defs> <title>wanna_partners</title> <path class="7dc714a7-1492-46ea-a520-3d02e014e2d1" d="M20,0H277.5a20,20,0,0,1,20,20V282.5a20,20,0,0,1-20,20H20a20,20,0,0,1-20-20V20A20,20,0,0,1,20,0"></path> <g id="e5d2f7f2-c995-45eb-a106-06d99de2f04c" data-name="layer1"> <g id="396d7883-5e11-43d9-aa04-7a302b84ede7" data-name="g12303"> <path id="41e4f192-f68f-47c3-81e7-57e99f76d87c" data-name="path12282" d="M163.45,135.21a1.82,1.82,0,0,0,.41,0,5,5,0,0,0,4.31-4.09,3.45,3.45,0,0,0-3.06-4.09l-.41,0a1.82,1.82,0,0,0-.41,0,5,5,0,0,0-4.31,4.09,3.69,3.69,0,0,0,.73,2.87,3.5,3.5,0,0,0,2.75,1.25Z"></path> <path id="6670868a-ea17-49b6-805d-5787ddfe23df" data-name="path12284" d="M259.54,169.49c0-5.62-2.75-10.76-5.17-15.29-2.08-3.86-3.93-7.37-3.45-10a3.69,3.69,0,0,1,3.77-3.1h0c.06,0,.13,0,.19,0a1.3,1.3,0,0,0,.29-.16.5.5,0,0,0,.19-.26s0,0,0-.06l1-2.65a.83.83,0,0,0,0-.67,1.13,1.13,0,0,0-.32-.38,2.81,2.81,0,0,0-.93-.42,6.59,6.59,0,0,0-2-.32c-3,0-6.67,1-9.86,8.94-.13.32-6.29,16.28-6.48,16.79A6.06,6.06,0,0,1,231,166a4,4,0,0,1-3.38-1.53,5.17,5.17,0,0,1-.32-.57,4,4,0,0,1-.19-2.23c.06-.29.13-.61.22-.93A17,17,0,0,1,228,159l13.34-34.13a1,1,0,0,0-1-1.5h-3a2,2,0,0,0-1,.26,2.55,2.55,0,0,0-1.21,1.25c-1.15,2.91-2.78,7.12-4.5,11.56-1.34,3.42-2.71,7-4,10.18a14.58,14.58,0,0,0-1.31-1.82,15.34,15.34,0,0,0-1.63-1.6,14.22,14.22,0,0,0-9.13-3.16A17.85,17.85,0,0,0,203,144.59c-.13.1-.22.22-.35.32s-.16.16-.26.22a19.09,19.09,0,0,0-4.79,7.15s0,.06,0,.13c-.13.35-.22.7-.35,1.09a14.55,14.55,0,0,0-.45,2q-.14,1-.19,1.92a14.8,14.8,0,0,0,.8,5.33,7.14,7.14,0,0,1-1.09,1.34,7.28,7.28,0,0,1-4.37,2h-.45a5.39,5.39,0,0,1-1.79-.32,3.49,3.49,0,0,1-1.63-1.21c-.73-1.05-.73-2.59-.06-4.34.16-.45,1.18-3.16,2.11-5.59.7-1.88,1.34-3.64,1.47-4,.06-.19.19-.48.29-.83a3.82,3.82,0,0,0-.19-2.55,4.49,4.49,0,0,0-.67-1,4.93,4.93,0,0,0-1.82-1.12,7.18,7.18,0,0,0-.77-.26,14.39,14.39,0,0,1-1.47-.54s0,0-.06,0c-.89-.38-5.2-2.39-5.2-6.23v-.48a1.53,1.53,0,0,0-.51-1.12s0,0-.06,0h0s-.06,0-.1-.06h-.06s0,0-.06,0h0a1.32,1.32,0,0,0-.51-.1H177.4a2.49,2.49,0,0,0-1.72.8,2,2,0,0,0-.45.7c-.64,1.63-1.4,3.58-2.2,5.65-2.81,7.21-6.16,15.87-7.12,18.32l-.1.29a6.07,6.07,0,0,1-5.87,4.15,4,4,0,0,1-3.38-1.53,3.61,3.61,0,0,1-.54-2.17,7.23,7.23,0,0,1,.48-2.17c.61-1.6,1.92-4.92,3.29-8.43,1.31-3.35,2.68-6.93,3.64-9.35a1,1,0,0,0-1-1.5h-3.26a2.38,2.38,0,0,0-.64.1h-.06a3.78,3.78,0,0,0-1.82,1.18,17.57,17.57,0,0,1-5.68,4.44,20.47,20.47,0,0,1-6.74,2,12.46,12.46,0,0,0-1.25-2.43s0-.06-.06-.1a13.49,13.49,0,0,0-11.78-6.13,17,17,0,0,0-6.64,1.4c1.05-2.71,2.11-5.46,3.1-8,1.21-3.16,2.36-6.1,3.29-8.52a1.18,1.18,0,0,0,0-1,1,1,0,0,0-1-.51h-3a2.35,2.35,0,0,0-1.09.32,2.24,2.24,0,0,0-1,.93c0,.1-.1.16-.13.26-3.8,9.67-9.86,25.35-12.74,32.85-.8,2-1.34,3.51-1.56,4.05a6.06,6.06,0,0,1-5.84,4.15,6.81,6.81,0,0,1-.86-.06,3.64,3.64,0,0,1-2.52-1.47c-.1-.16-.19-.32-.29-.51a3.89,3.89,0,0,1-.22-2.3,10.32,10.32,0,0,1,.54-1.76c.35-1,.7-1.88.7-1.88s1.28-3.26,3.1-8c.19-.51.42-1.05.64-1.63a.45.45,0,0,0,.06-.19c2.81-7.21,6.58-17,9.29-24,1.09-2.84,2-5.24,2.65-6.83a1,1,0,0,0-1-1.5h-3a2.49,2.49,0,0,0-2.17,1.5c-.35.89-3.48,9-7,18.07-4.53,11.68-9.67,25-10.22,26.4-.13.29-.26.57-.42.86a6.29,6.29,0,0,1-2.23,2.46,6.41,6.41,0,0,1-3.22.86,4.16,4.16,0,0,1-2.94-1c-.16-.16-.32-.32-.48-.51a3.71,3.71,0,0,1-.48-2.75v0c.16-.93,1.4-4.18,1.4-4.25.8-2,1.72-4.47,2.71-7.06,3.29-8.46,7.31-18.93,9.9-25.54a1.81,1.81,0,0,0,.1-.57,1,1,0,0,0-.32-.67,1.19,1.19,0,0,0-.8-.26h-3a2.28,2.28,0,0,0-1,.26,2.43,2.43,0,0,0-1.05,1l-.13.22c-.77,1.95-1.6,4.12-2.49,6.42-1,2.49-2,5.14-3,7.79-4.09,10.53-8.14,21.1-8.81,22.79a10,10,0,0,1-.86,1.63,5.75,5.75,0,0,1-5,2.52,4.88,4.88,0,0,1-2.43-.61,3,3,0,0,1-1-.93,3.67,3.67,0,0,1-.38-.8,4.06,4.06,0,0,1-.1-2,27,27,0,0,1,1.21-3.58.11.11,0,0,1,0-.06l6.1-15.71a1,1,0,0,0-1-1.5h-3a2.51,2.51,0,0,0-1.56.64h0a0,0,0,0,0,0,0,1.88,1.88,0,0,0-.54.8l-.61,1.6-1,2.49-.57-.86h0a7.77,7.77,0,0,0-.64-.8h0A13.43,13.43,0,0,0,63.37,142,14.29,14.29,0,0,0,56,140.06c-6.67,0-13,4.21-16.09,10.15a17.27,17.27,0,0,0-1.76,5.3,14.08,14.08,0,0,0,3.13,11.56,12.85,12.85,0,0,0,2.81,2.46c.19.13.42.26.64.38A14.43,14.43,0,0,0,52,171.82h0a18.11,18.11,0,0,0,11.75-4.63h0a5.56,5.56,0,0,0,.35.57l.22.32s0,0,0,.06.16.19.22.29a.85.85,0,0,1,.16.19c0,.06.1.1.16.16a2.07,2.07,0,0,1,.26.29l.1.1c.13.1.22.22.35.32l0,0a9.74,9.74,0,0,0,4.05,2s.06,0,.1,0l.48.1c.06,0,.13,0,.22,0s.26,0,.42.06.22,0,.35,0,.19,0,.32,0,.45,0,.7,0h0A11.91,11.91,0,0,0,77,171a8.71,8.71,0,0,0,1.53-.8,4.16,4.16,0,0,0,.48-.32,11.42,11.42,0,0,0,1.79-1.5,6.67,6.67,0,0,0,.64.7,9.54,9.54,0,0,0,5.71,2.71l.22,0h.19c.13,0,.26,0,.38,0h.57a11.53,11.53,0,0,0,8.43-3.48,9.36,9.36,0,0,0,3.1,2.46,10.44,10.44,0,0,0,4.6,1h0a12.67,12.67,0,0,0,2.49-.26,11.73,11.73,0,0,0,8.11-6.23c.1.16.19.29.29.45l.38.57c.19.26.38.48.57.73a13.92,13.92,0,0,0,10.76,4.76h0a18.61,18.61,0,0,0,14.84-8.08,17.65,17.65,0,0,0,3-7.34q.14-1,.19-2a14.38,14.38,0,0,0,1.69-.29,24.48,24.48,0,0,0,6.8-2.36c-.06.16-.13.35-.19.51-1,2.52-1.82,4.69-2.27,5.87-1.4,3.54-1.18,7,.64,9.67a8.81,8.81,0,0,0,2.52,2.46,10.34,10.34,0,0,0,5.62,1.6h0a11.85,11.85,0,0,0,11.24-7.82c.26-.64.77-2,1.44-3.74l5.43-14c.16-.45.35-.89.51-1.31a15.89,15.89,0,0,0,6.07,4.57l.35.16.73.29c-1.09,2.94-2.81,7.6-3,8.11a11.27,11.27,0,0,0-.73,6.29,9.23,9.23,0,0,0,1.37,3.38,9.38,9.38,0,0,0,7.5,4.05c.22,0,.41,0,.64,0s.7,0,1.05-.06a.54.54,0,0,0,.22,0h.1a12.67,12.67,0,0,0,4.18-1.25,13.24,13.24,0,0,0,3.58-2.62,13.77,13.77,0,0,0,7.5,3.74,15.74,15.74,0,0,0,2.49.19h0a17.36,17.36,0,0,0,11.17-4.15,4.91,4.91,0,0,0,.61-.54c.13.22.26.45.38.64a9.27,9.27,0,0,0,4.6,3.48l.26.1.32.1.35.1c.1,0,.19,0,.29.06a1.36,1.36,0,0,0,.35.06c.1,0,.19,0,.29.06a1.31,1.31,0,0,0,.35,0c.13,0,.26,0,.38,0s.19,0,.29,0,.45,0,.7,0h0a11.85,11.85,0,0,0,11.24-7.82c.1-.29,1.95-4.92,3.45-8.75.45-1.15.86-2.23,1.18-3.1.16.35.35.73.51,1.09q.91,1.82,1.92,3.74c.54,1,1.12,2.08,1.63,3.13,1.56,3.13,2.87,6.32,2.87,9.45,0,9.23-6.26,10.85-8.17,11.14a2.88,2.88,0,0,0-2.43,2.39,2.6,2.6,0,0,0,0,.86.6.6,0,0,0,.06.26,2.9,2.9,0,0,0,2.78,2.2h.45a15.94,15.94,0,0,0,4.6-1.44c4.44-2.49,8.43-7.34,8.43-15.61Zm-36.78-14a12.82,12.82,0,0,1-6.07,9,.24.24,0,0,1-.13.06,0,0,0,0,0,0,0,10.85,10.85,0,0,1-5.43,1.5,8.38,8.38,0,0,1-2.55-.38A7.59,7.59,0,0,1,205,163.3a8,8,0,0,1-1.72-4v0h0a9.65,9.65,0,0,1,0-2.87,11.89,11.89,0,0,1,1.44-4.15,13.2,13.2,0,0,1,3.86-4.31,11.21,11.21,0,0,1,6.35-2.11,8,8,0,0,1,4.12,1.05,7.88,7.88,0,0,1,2,1.69,5.9,5.9,0,0,1,.73,1.09,8.72,8.72,0,0,1,1.09,4.37A7.83,7.83,0,0,1,222.77,155.48ZM124.6,165.76a7.25,7.25,0,0,1-3.89-2.49,8.75,8.75,0,0,1-1.72-6.93v0a9.77,9.77,0,0,1,.42-1.72c.22-.57.45-1.18.7-1.79h0c0-.1.1-.16.13-.26s.16-.32.26-.48.06-.1.1-.16a13.52,13.52,0,0,1,2.55-3.13,11.49,11.49,0,0,1,7.5-3,8.64,8.64,0,0,1,3.45.7,7.33,7.33,0,0,1,2.68,2,8.79,8.79,0,0,1,1.72,7c-.86,5.81-6.1,10.57-11.68,10.57A8.34,8.34,0,0,1,124.6,165.76ZM52.36,166a7.84,7.84,0,0,1-6.16-2.75,6.47,6.47,0,0,1-.42-.57,8.83,8.83,0,0,1-1.31-6.38c.86-5.81,6.13-10.57,11.75-10.57a7.84,7.84,0,0,1,6.16,2.75,8.67,8.67,0,0,1,1.72,7,10,10,0,0,1-.29,1.34C62.41,162,57.53,166,52.35,166Z"></path> </g> </g> </svg> 