<?xml version="1.0" encoding="UTF-8"?> <svg xmlns="http://www.w3.org/2000/svg" id="a0857cd9-dcff-437c-9831-e1aba546319a" data-name="Слой 1" width="104.95mm" height="106.72mm" viewBox="0 0 297.5 302.5"> <defs> <style> .\38 b898295-cd58-4548-80ce-d75d614c6f32 { fill: #f4f4f4; } </style> </defs> <title>wanna_partners</title> <path class="8b898295-cd58-4548-80ce-d75d614c6f32" d="M20,0H277.5a20,20,0,0,1,20,20V282.5a20,20,0,0,1-20,20H20a20,20,0,0,1-20-20V20A20,20,0,0,1,20,0"></path> <g> <path d="M72,149.22c-.75-1.61-1.14-2.45-1.65-3.71-.48,1.26-.68,1.65-1.55,3.82L67,153.69h7Zm-7,9.86-2.49,5.49H55.24l12.67-26.7H74l12.67,26.7H79.54l-2.71-5.49Zm39.86-9.63a5.32,5.32,0,0,0,2.71-.42,3.17,3.17,0,0,0,1.58-2.71,3.23,3.23,0,0,0-1.58-2.71,5.31,5.31,0,0,0-2.71-.39H96v6.23ZM96,164.58H89.27v-26.7H106.7c3.1,0,4.79.39,6.36,1.36A7.19,7.19,0,0,1,111.67,152c2.65.94,3.46,2.43,3.52,6.59.13,3.33.33,4.3,1.14,6H109a10.83,10.83,0,0,1-.52-4.65c0-3.88-1.06-5.08-4.49-5.08H96Z"></path> <path d="M147.61,164.58v-26.7h24.44v5.42H154.31v5H170v5.41H154.31v5.5h17.75v5.42Z"></path> <path d="M191.44,164.58h-6.69v-21.3h-9.24v-5.42h25.15v5.42h-9.22Z"></path> <path d="M233.46,154.15c-1.91,7.59-7.11,11.41-15.74,11.41-9.83,0-16-5.46-16-14.06,0-8.81,6.4-14.55,16.21-14.55,4.69,0,8.37,1.23,11.28,3.84a11.65,11.65,0,0,1,3.91,6.4h-7.24c-1.36-3.39-4-5-8-5-5.37,0-9.08,3.78-9.08,9.21a8.58,8.58,0,0,0,9,9c4.27,0,6.82-1.9,8.37-6.2Z"></path> <path d="M257.26,137.88v10.4H243.52v-10.4h-6.67v26.7h6.69V153.69h13.74v10.89H264v-26.7Z"></path> <path d="M33.55,164.58v-26.7H57v5.42H40.24v5H55.59v5.41H40.24v10.85Z"></path> <path d="M120.72,164.58v-26.7h23.43v5.42H127.41v5H142.8v5.41H127.41v10.85Z"></path> </g> </svg> 