<?xml version="1.0" encoding="UTF-8"?> <!-- Generator: Adobe Illustrator 24.2.3, SVG Export Plug-In . SVG Version: 6.00 Build 0) --> <svg xmlns="http://www.w3.org/2000/svg" xmlns:xlink="http://www.w3.org/1999/xlink" id="Слой_1" x="0px" y="0px" viewBox="0 0 297.5 302.5" style="enable-background:new 0 0 297.5 302.5;" xml:space="preserve"> <style type="text/css"> .st0{fill:#F4F4F4;} .st1{fill:#FFFFFF;} </style> <g> <path class="st0" d="M20,0h257.5c11,0,20,9,20,20v262.5c0,11-9,20-20,20H20c-11,0-20-9-20-20V20C0,9,9,0,20,0"></path> <g> <path d="M105.8,156.8c-1.2-1.6-1.9-1.5-2.7,0c-0.5,0.9-0.9,1.8-1.6,2.7c-1.4,1.9-4,2.1-5.8,0.6c-0.8-0.7-1.4-0.7-2.4-0.4 c-1.6,0.6-3.2,1.1-4.9,1.3c-2.3,0.3-3.8-1-4.3-3.3c-0.5-2.1,0.4-4,2.5-4.8c2.3-0.9,4.7-1,7.1,0c0.4,0.2,1,0.1,1.5,0.1 c0.5,0,1.2-0.2,1.5,0.1c0.3,0.2,0.1,1,0.1,1.5c-0.1,0.8-0.3,1.6-0.4,2.4c-0.1,1.7,1.2,2.5,2.7,1.7c1.7-0.9,2.6-2.3,2.9-4.2 c0.1-0.9,0-1.9,0.1-2.9c0-0.3,0.2-0.9,0.5-1c0.3-0.1,0.7,0.2,1,0.4c1.5,1.3,3,2.6,4.5,4c0.4,0.4,0.8,0.3,1.3,0 c0.6-0.5,1.2-0.9,1.7-1.3c0.8-0.6,1.2-1.2,1.2-2.2c0-0.4,0.3-1,0.7-1.2c0.3-0.1,0.9,0.2,1.2,0.4c1,1.1,2,2.3,3,3.4 c0.7,0.8,1.5,1.1,2.6,0.7c1.6-0.6,3.2-0.9,4.2-2.5c0.1-0.2,0.8-0.2,1.1-0.1c0.4,0.2,0.8,0.7,0.9,1.1c0.2,1,0.1,2.1,0.2,3.1 c0.1,1.4,0.9,1.8,2,0.9c0.6-0.5,1-1.2,1.4-1.9c0.5-0.8,0.7-1.8,1.3-2.6c0.3-0.5,1.1-0.9,1.6-0.9c0.4,0,0.8,0.8,1,1.3 c0.2,0.5,0.2,1.1,0.3,1.6c0.1,0.3,0.4,0.8,0.7,0.8c0.3,0,0.8-0.2,1-0.5c0.4-0.4,0.5-1,0.8-1.4c0.4-0.5,0.7-1.1,1.1-1.6 c1-1,1.9-0.8,2.4,0.6c0.1,0.2,0.1,0.4,0.2,0.6c0.4,0.5,0.7,1.4,1.2,1.4c0.5,0.1,1.2-0.5,1.7-0.9c0.4-0.3,0.6-0.8,0.9-1.2 c0.5-0.6,1.1-1,2-0.8c0.9,0.2,1.1,0.9,1.2,1.6c0.1,0.6,0,1.3,0.1,2c0.1,0.9,0.1,1.8,0.2,2.7c0.2,1.1,1.1,1.6,2,1 c0.6-0.4,1.2-1,1.6-1.7c0.5-0.9,0.7-2,1.1-3c0.1-0.4,0.3-0.8,0.5-1.1c0.1-0.2,0.5-0.4,0.8-0.3c0.2,0,0.6,0.4,0.6,0.6 c0.1,0.6,0.1,1.3,0,2c-0.2,2.1,0.6,3.6,2.4,3.8c2.4,0.4,4.6-0.9,4.9-2.9c0.3-1.3-1-2.8-2.6-2.8c-0.6,0-1.3,0.2-1.9,0.2 c-0.3,0-0.7,0-1-0.1c0-0.1-0.1-0.3-0.1-0.4c0.5-0.3,1-0.9,1.5-1c1.4-0.1,2.9-0.2,4.3,0.2c2.7,0.7,3.7,3.7,2.2,6 c-1.7,2.6-5.4,3.8-8.3,2.8c-0.5-0.2-1-0.6-1.4-0.9c-1.3-1.2-2-1.2-3.3,0c-0.4,0.4-0.8,0.8-1.2,1.1c-1.5,1-3.2,0.4-3.8-1.3 c-0.3-1-0.4-2.1-0.7-3.1c-0.2-0.5-0.6-1-0.9-1.5c-0.5,0.4-1.1,0.7-1.4,1.1c-0.5,0.7-0.7,1.6-1,2.4c-0.1,0.3-0.3,0.8-0.6,1 c-0.5,0.4-1,0.8-1.5,0.8c-0.3,0-0.7-0.8-0.8-1.2c-0.2-0.9-0.2-1.9-0.4-2.9c-0.1-0.4-0.3-0.9-0.6-0.9c-0.3-0.1-0.8,0.3-1,0.6 c-0.6,1-1.1,2-1.6,3c-0.2,0.3-0.3,0.7-0.6,1c-0.3,0.3-0.8,0.7-1.2,0.6c-0.4-0.1-0.7-0.6-0.9-1c-0.2-0.4-0.2-0.9-0.3-1.4 c-0.3-1.1-1.1-1.3-2-0.7c-0.4,0.3-0.7,0.7-1.1,1.1c-0.4,0.4-0.8,0.9-1.3,1.2c-1.6,1-3,0.5-3.6-1.2c-0.3-0.8-0.5-1.6-0.7-2.4 c-0.2-0.7-0.6-1-1.3-0.8c-0.5,0.1-1,0.2-1.4,0.3c-0.7,0.2-0.9,0.6-0.6,1.4c0.7,2.1-0.1,3.5-2.2,3.8c-1.3,0.2-2.7,0.1-4-0.1 c-0.9-0.2-1.6-0.8-1.7-1.8c-0.1-1,0.6-1.5,1.4-2c0.2-0.1,0.4-0.1,0.6-0.3c0.5-0.3,1.5-0.2,1-1.2c-0.5-1.2-1.4-1.6-2.3-1.1 c-0.6,0.3-1.1,0.7-1.7,1.1c-1.5,1.1-1.5,1.1-0.9,2.8c0.7,1.8,0,2.9-1.9,3.3c-1.7,0.3-3.2,0-4.6-0.8c-1.3-0.7-1.5-1.8-0.4-2.9 c0.3-0.3,0.7-0.6,1.1-0.9C104.9,157.3,105.3,157.1,105.8,156.8z M94,156.2c0-2.2-0.2-2.4-2.2-2.3c-0.6,0-1.3,0.1-1.9,0.2 c-1.3,0.3-2.3,1.5-2.5,2.7c-0.1,1.1,0.4,1.8,1.3,2.3c1.5,0.7,2.8,0.1,4.2-0.5C94,158,94.1,157,94,156.2z M106.8,160.3 c0.4-0.5,0.9-0.8,0.9-1c-0.1-0.4-0.5-0.8-0.8-1.2c-0.5,0.4-0.9,0.7-1.4,1.1C106,159.6,106.3,159.9,106.8,160.3z M116.5,160.2 c0.4-0.5,1-0.8,0.9-1.1c-0.1-0.4-0.5-0.7-0.8-1.1c-0.4,0.4-0.9,0.7-1.3,1.1C115.7,159.4,116,159.7,116.5,160.2z"></path> <path d="M76.3,142.8c-0.2,0.4-0.5,0.7-0.6,1.1c-1.9,4.8-3.8,9.7-5.8,14.5c-0.3,0.8-0.8,1.6-1.4,2.1c-1.3,1.3-3.2,1.1-4-0.5 c-0.5-1.1-0.8-2.3-1-3.5c-0.7-3.2-1.2-6.4-1.9-9.5c-0.1-0.5-0.4-1-0.6-1.5c-0.1,0-0.2,0-0.3,0c-0.2,0.4-0.5,0.8-0.6,1.2 c-1,4.3-1.9,8.5-2.9,12.8c-0.1,0.6-0.4,1.3-0.9,1.5c-0.4,0.3-1.4,0.3-1.7,0c-0.4-0.3-0.5-1.2-0.4-1.7c0.8-3.4,1.6-6.8,2.5-10.2 c0.7-2.9,1.4-5.9,2.2-8.8c0.4-1.5,1.1-2.1,2.4-2c1.7,0.1,2.6,0.7,2.8,2.3c0.5,3,1,6,1.5,9c0.3,1.9,0.6,3.7,1,5.6 c0.1,0.5,0.5,0.9,0.8,1.3c0.3-0.4,0.8-0.7,1-1.2c1.9-4.9,3.8-9.9,5.7-14.9c0.1-0.2,0.2-0.5,0.2-0.7c0.8-2.1,2.4-2.8,4.5-2.1 c0.8,0.3,1.1,1,1.2,1.8c0.2,3.9,0.4,7.7,0.6,11.6c0.2,3.7,0.4,7.5,0.6,11.2c0,0.5,0,1-0.1,1.5c-0.2,0.9-0.8,1.4-1.7,1.3 c-1,0-1.7-0.6-1.7-1.6c-0.1-2.8-0.2-5.5-0.2-8.3c-0.1-3.5-0.1-7-0.2-10.4c0-0.6-0.3-1.1-0.4-1.7C76.6,142.8,76.5,142.8,76.3,142.8 z"></path> <path d="M243.3,160c-0.3,0.3-0.5,0.7-0.9,0.9c-2.8,1.4-5,1.6-7.1-0.5c-0.6-0.6-1.2-0.4-1.8,0.1c-2.2,1.8-3.1,1.8-5.3,0.1 c-0.9-0.7-1.6-0.7-2.6,0.2c-1.8,1.6-2.4,1.6-4.3,0.1c-1.1-0.9-2.1-0.9-3.3,0c-1.7,1.5-2.9,1.5-4.6-0.1c-1.5-1.3-1.8-1.3-3.1,0.1 c-0.9,1.1-2.1,1.6-3.5,1.3c-1.4-0.3-2-1.3-2.3-2.5c-0.4-1.8-0.7-3.7,0-5.6c0.3-0.7,0.7-1.3,1.5-1.1c0.8,0.1,0.8,0.8,0.8,1.5 c0,0.9-0.1,1.9-0.1,2.8c0,0.8-0.2,1.7,0.7,2.1c0.9,0.4,1.9,0,2.4-0.8c0.7-1.2,1.2-2.4,1.8-3.7c0.2-0.4,0.2-1,0.4-1.4 c0.2-0.4,0.7-0.9,1-0.8c0.4,0,0.7,0.6,0.9,1c0.2,0.3,0.1,0.8,0.1,1.2c0,0.7,0,1.4,0,2.1c0,0.9,0.1,1.9,1.2,2.2 c1,0.3,1.8-0.2,2.5-1c1-1.2,1.4-2.7,1.5-4.2c0.1-1.2,0-2.4,0.1-3.6c0-0.6-0.3-0.7-0.8-0.7c-0.7,0-1.4-0.1-2.1-0.1 c-0.9,0-1.5-0.3-1.7-1.2c-0.1-0.6,0.7-1.1,1.8-1.2c0.7,0,1.3,0,2,0c0.7,0.1,1-0.2,1.1-0.9c0.1-1.3,0.2-2.7,0.3-4 c0-0.8,0.4-1.2,1.2-1.3c0.9,0,1.1,0.5,1.1,1.3c0,1.3,0.1,2.6,0,3.8c-0.1,0.9,0.3,1.1,1.1,1.1c0.8-0.1,1.6-0.1,2.4,0 c0.9,0.1,1.3-0.3,1.3-1.2c0-1.1,0.1-2.3,0.2-3.4c0-0.4,0.1-0.8,0.3-1.1c0.3-0.3,0.8-0.5,1.1-0.5c0.3,0,0.6,0.6,0.6,0.9 c0.1,1.3,0,2.6,0,3.9c0,0.4,0,0.7,0,1.3c0.8,0,1.6-0.1,2.2,0c0.6,0.1,1.2,0.4,1.6,0.8c0.6,0.7,0.1,1.6-0.8,1.7 c-0.7,0-1.4,0.1-2.1,0c-0.7-0.1-1,0.3-1.1,0.9c-0.1,2.1-0.2,4.3-0.3,6.4c0,0.8,0.3,1.5,1.1,1.9c0.8,0.4,1.6,0.1,2.2-0.5 c0.9-0.7,1.5-1.6,1.7-2.8c0.2-0.8,0.3-1.6,0.7-2.3c0.2-0.4,0.8-0.7,1.3-0.7c0.3,0,0.7,0.7,0.7,1.1c0.1,0.8-0.1,1.7-0.1,2.6 c-0.2,2.9,1.4,4.3,4.2,3.8c0.7-0.1,1.3-0.3,2-0.4C243.1,159.8,243.2,159.9,243.3,160z M222,154.1c0,1,0,2.1,0,3.1 c0,1.4,1.2,2.1,2.5,1.4c0.5-0.3,1.1-0.8,1.3-1.4c1.1-2.2,0.9-4.6,1-6.9c0-0.2-0.5-0.6-0.9-0.6c-0.9-0.1-1.9,0-2.8,0 c-0.8,0-1.1,0.3-1.1,1C222,151.9,222,153,222,154.1z"></path> <path d="M180.8,149.8c0,2.4,0,4.8,0,7.2c0,1-0.2,1.9-0.5,2.8c-0.2,0.8-0.8,1.3-1.7,1.1c-0.9-0.2-1.4-0.8-1.3-1.7 c0.1-3,0.2-5.9,0.4-8.9c0.1-2.8,0.2-5.5,0.2-8.3c0-1.1-0.2-1.2-1.2-1c-0.8,0.2-1.5,0.4-2.3,0.5c-0.5,0-1-0.2-1.6-0.3 c0.4-0.4,0.7-0.9,1.1-1.1c0.9-0.4,1.8-0.7,2.7-1c3.9-1.3,8-1.8,12.1-1.2c5.9,0.9,10.6,5,11.7,10.2c1.4,6.4-1.9,12.5-8.3,15 c-5.4,2.1-11,2.2-16.5,0.2c-0.6-0.2-1.2-0.6-1.7-1c-0.2-0.2-0.4-0.8-0.2-0.9c0.2-0.2,0.7-0.4,1-0.3c2.7,1.2,5.6,1.4,8.5,1.4 c4.4,0,8.3-1.4,11.3-4.8c2.3-2.7,2.9-5.9,2.4-9.2c-0.4-3-2.4-4.9-4.9-6.3c-3.1-1.7-6.5-2.2-10.1-1.8c-0.8,0.1-0.9,0.6-0.9,1.2 C180.9,144.5,180.9,147.2,180.8,149.8C180.9,149.8,180.9,149.8,180.8,149.8z"></path> <path d="M237.8,148.4c0,0.9-0.5,1.5-1.3,1.5c-0.8,0-1.5-0.6-1.5-1.5c0-0.9,0.6-1.4,1.4-1.4C237.2,147,237.8,147.5,237.8,148.4z"></path> <path d="M124.9,149.3c-0.9,0-1.6-0.7-1.6-1.3c0.1-0.7,0.5-1.3,1.3-1.3c0.8,0,1.4,0.6,1.4,1.4C126,148.8,125.6,149.2,124.9,149.3z"></path> <path class="st1" d="M222,154.1c0-1.1,0-2.2,0-3.3c0-0.7,0.3-1.1,1.1-1c0.9,0,1.9,0,2.8,0c0.3,0,0.9,0.4,0.9,0.6 c-0.1,2.3,0.1,4.7-1,6.9c-0.3,0.5-0.8,1.1-1.3,1.4c-1.2,0.7-2.4-0.1-2.5-1.4C222,156.1,222,155.1,222,154.1z"></path> </g> </g> </svg> 